<?xml version="1.0" encoding="utf-8"?>
<!-- Generator: Adobe Illustrator 18.0.0, SVG Export Plug-In . SVG Version: 6.00 Build 0)  -->
<!DOCTYPE svg PUBLIC "-//W3C//DTD SVG 1.1//EN" "http://www.w3.org/Graphics/SVG/1.1/DTD/svg11.dtd">
<svg version="1.1" id="Layer_1" xmlns="http://www.w3.org/2000/svg" xmlns:xlink="http://www.w3.org/1999/xlink" x="0px" y="0px"
	 viewBox="0 0 1716.2 573.1" enable-background="new 0 0 1716.2 573.1" xml:space="preserve">
<g>
	<path fill="#4B4B4D" d="M1160.6,429.8c-2.9-2.3-7.6-14.1-7.6-14.1s-18.5-40.7-54.2-123.5c-37-85.7-75.2-177.9-75.2-177.9h-41
		L881.8,361.2l-104-246.9h-39.9c0,0-92.3,231-132.1,313.7c-6.3,5.4-25.3,5.4-25.3,5.4h-61.4c0,0-12.2,0.7-16.7-5.9
		c-5.2-9.2-4.3-23.2-4.3-121.8c0-70.6,0.5-162.2,0.5-162.2s56.6-15.1,78.7,14.6c28,37.7,12.9,83.5-3.2,98.1
		c-22.1,23.2-55.5,10.8-55.5,10.8l-5.9,7.5l8.6,17.2c0,0,62,15.1,105.6-23.2c28.6-17.8,39.5-55,37.2-76
		c-0.5-33.4-10.7-51.4-23.7-61.4c-15.6-15.1-46.9-16.7-46.9-16.7H385.4v20.1c0,0,15.4,0.4,20.1,1.5c4.2,0.9,10.4,0,15.8,5
		c6.1,8.3,6.6,107.8,6.1,194.8c-1.4,93.4-5.4,90.6-5.4,90.6s-36.3-76.4-47.4-102.6c-22.2-52.3-86.2-209.4-86.2-209.4h-41
		c0,0-66.1,165.7-88.4,218.3c-11,26-31.3,83.5-44.7,95.9c-5.9,4.7-29.6,5.4-29.6,5.4v23.2h114.3v-23.7c0,0-38.1,0-38.4-9.7
		c-2.9-12.6,23.4-72.2,23.4-72.2h125c0,0,32,68.6,25.9,76.9c-6.1,5.7-36.7,5.6-36.7,5.6v23.2h390.2v-22.6c0,0-34.3-3.8-38.1-8.3
		c-5-14,21.9-74.7,21.9-74.7h127.2c0,0,30,65.2,25.3,76.2c-2.9,6.6-37.2,6.3-37.2,6.3v23.2h156.3v-23.7c0,0-23.5,0.9-31.3-5.9
		c-5.9-7.7-12.2-17.6-12-24.1c0.4-13.8,18.5-50.8,18.5-50.8h126.9c0,0,30.3,64.9,24.3,75.3c-4.7,8.1-37,6.1-37,6.1v23.2h155.2v-22.6
		C1188.5,434.5,1166.5,434.5,1160.6,429.8z M194.6,322.4l51-124l51.4,124H194.6z M684,322.4l51.2-123.2l51.2,123.2H684z
		 M930.9,322.4l50.9-124.2l50.4,124.2H930.9z"/>
	<g>
		
			<linearGradient id="SVGID_1_" gradientUnits="userSpaceOnUse" x1="2489.718" y1="-796.9619" x2="2832.0515" y2="-796.9619" gradientTransform="matrix(4.489659e-11 -1 1 4.489659e-11 2047.5291 2885.4268)">
			<stop  offset="0" style="stop-color:#F5DC94"/>
			<stop  offset="1" style="stop-color:#4B4B4D"/>
		</linearGradient>
		<line fill="url(#SVGID_1_)" x1="1250.6" y1="457.1" x2="1250.6" y2="114.8"/>
		<rect x="1243.1" y="114.8" fill="#4B4B4D" width="15" height="342.3"/>
	</g>
	<g>
		<path fill="#4B4B4D" d="M1306.9,163.6l4.1-0.6l19.1-49.4h6.4l18.8,49.4l4,0.6v4.7h-15.7v-4.7l4.1-0.7l-3.6-10.1h-21.9l-3.7,10.1
			l4.1,0.7v4.7h-15.7V163.6z M1324.5,146.6h17.4l-8.5-23.5h-0.2L1324.5,146.6z"/>
		<path fill="#4B4B4D" d="M1395.7,140.4h-5.6l-1.2-4.9c-0.9-0.9-2-1.5-3.4-2s-2.9-0.8-4.6-0.8c-2.6,0-4.6,0.6-5.9,1.7
			c-1.3,1.2-1.9,2.5-1.9,4.2c0,1.6,0.6,2.9,1.7,3.8c1.1,0.9,3.4,1.8,6.9,2.5c5.1,1.1,9,2.6,11.5,4.5c2.5,1.9,3.8,4.4,3.8,7.6
			c0,3.6-1.5,6.5-4.4,8.8c-2.9,2.2-6.7,3.3-11.4,3.3c-3.1,0-5.9-0.4-8.3-1.1c-2.5-0.7-4.7-1.7-6.6-3.1l0-9.3h5.6l1.4,5.5
			c0.9,0.8,2,1.3,3.5,1.7c1.5,0.4,3,0.5,4.5,0.5c2.6,0,4.7-0.5,6.2-1.6c1.5-1.1,2.2-2.5,2.2-4.2c0-1.6-0.6-3-1.9-4
			c-1.2-1.1-3.6-2-7-2.7c-4.9-1.1-8.7-2.5-11.2-4.4c-2.5-1.9-3.8-4.4-3.8-7.5c0-3.3,1.4-6.1,4.2-8.5c2.8-2.3,6.5-3.5,11-3.5
			c3.1,0,5.9,0.4,8.3,1.2c2.5,0.8,4.5,1.9,6.1,3.3L1395.7,140.4z"/>
		<path fill="#4B4B4D" d="M1403.9,147.6c0-6,1.6-11,4.9-14.9c3.3-3.9,7.7-5.8,13.3-5.8c5.6,0,10.1,1.9,13.3,5.8
			c3.3,3.9,4.9,8.8,4.9,14.9v0.8c0,6.1-1.6,11-4.9,14.9c-3.3,3.9-7.7,5.8-13.3,5.8c-5.6,0-10.1-1.9-13.3-5.8
			c-3.3-3.9-4.9-8.8-4.9-14.9V147.6z M1411.3,148.4c0,4.3,0.9,7.9,2.7,10.7c1.8,2.8,4.5,4.2,8.1,4.2c3.5,0,6.2-1.4,8-4.2
			c1.8-2.8,2.7-6.4,2.7-10.7v-0.8c0-4.3-0.9-7.8-2.7-10.6c-1.8-2.8-4.5-4.2-8.1-4.2c-3.6,0-6.2,1.4-8,4.2c-1.8,2.8-2.7,6.4-2.7,10.6
			V148.4z"/>
		<path fill="#4B4B4D" d="M1465.3,163.3c2.5,0,4.6-0.8,6.5-2.3c1.9-1.5,2.8-3.4,2.8-5.6h6.7l0.1,0.2c0.1,3.5-1.4,6.6-4.7,9.3
			c-3.2,2.7-7,4.1-11.3,4.1c-5.9,0-10.4-1.9-13.6-5.8c-3.1-3.9-4.7-8.7-4.7-14.6v-1.6c0-5.8,1.6-10.6,4.7-14.5
			c3.1-3.9,7.6-5.8,13.5-5.8c3.3,0,6.2,0.5,8.8,1.6c2.6,1.1,4.7,2.6,6.4,4.4l0.3,9h-5.9l-1.6-6.4c-0.9-0.9-2-1.5-3.4-2.1
			c-1.4-0.5-2.9-0.8-4.7-0.8c-3.9,0-6.7,1.4-8.3,4.2c-1.7,2.8-2.5,6.2-2.5,10.3v1.6c0,4.2,0.8,7.6,2.5,10.4
			C1458.6,161.9,1461.4,163.3,1465.3,163.3z"/>
		<path fill="#4B4B4D" d="M1488.5,163.6l6.1-1.1v-29.1l-6.1-1.1v-4.8h13.5v34.9l6.1,1.1v4.7h-19.7V163.6z M1502.1,117.2h-7.4v-7.6
			h7.4V117.2z"/>
		<path fill="#4B4B4D" d="M1540.4,168.3c-0.2-1.1-0.4-2.1-0.5-3c-0.1-0.9-0.2-1.8-0.3-2.6c-1.4,1.8-3.2,3.4-5.4,4.6
			c-2.1,1.2-4.4,1.8-6.9,1.8c-4.2,0-7.5-1-9.7-3.1c-2.2-2.1-3.3-5-3.3-8.7c0-3.9,1.6-6.8,4.7-8.9c3.1-2.1,7.4-3.1,12.8-3.1h7.6v-4.7
			c0-2.4-0.8-4.3-2.3-5.7c-1.5-1.4-3.6-2.1-6.3-2.1c-1.9,0-3.5,0.2-4.9,0.7c-1.4,0.5-2.6,1.1-3.4,2l-0.8,4.3h-5.7v-7.9
			c1.9-1.5,4.1-2.7,6.7-3.6s5.5-1.3,8.6-1.3c4.6,0,8.3,1.2,11.2,3.5c2.9,2.4,4.3,5.7,4.3,10.1v19.6c0,0.5,0,1,0,1.5
			c0,0.5,0,1,0.1,1.5l3,0.4v4.7H1540.4z M1528.5,162.9c2.5,0,4.7-0.6,6.7-1.8c2-1.2,3.5-2.6,4.4-4.2v-6.7h-7.9c-3,0-5.4,0.7-7.2,2.1
			c-1.8,1.4-2.7,3.1-2.7,5.1c0,1.8,0.6,3.1,1.7,4.1C1524.6,162.4,1526.2,162.9,1528.5,162.9z"/>
		<path fill="#4B4B4D" d="M1574.5,163.3c2.5,0,4.6-0.8,6.5-2.3c1.9-1.5,2.8-3.4,2.8-5.6h6.7l0.1,0.2c0.1,3.5-1.4,6.6-4.7,9.3
			c-3.2,2.7-7,4.1-11.3,4.1c-5.9,0-10.4-1.9-13.6-5.8c-3.1-3.9-4.7-8.7-4.7-14.6v-1.6c0-5.8,1.6-10.6,4.7-14.5
			c3.1-3.9,7.6-5.8,13.5-5.8c3.3,0,6.2,0.5,8.8,1.6c2.6,1.1,4.7,2.6,6.4,4.4l0.3,9h-5.9l-1.6-6.4c-0.9-0.9-2-1.5-3.4-2.1
			c-1.4-0.5-2.9-0.8-4.7-0.8c-3.9,0-6.7,1.4-8.3,4.2c-1.7,2.8-2.5,6.2-2.5,10.3v1.6c0,4.2,0.8,7.6,2.5,10.4
			C1567.8,161.9,1570.6,163.3,1574.5,163.3z"/>
		<path fill="#4B4B4D" d="M1616.3,169.1c-5.7,0-10.2-1.9-13.5-5.7c-3.3-3.8-5-8.7-5-14.7v-1.7c0-5.8,1.7-10.6,5.2-14.5
			c3.4-3.8,7.5-5.8,12.2-5.8c5.5,0,9.6,1.7,12.4,5c2.8,3.3,4.2,7.7,4.2,13.2v4.6h-26.4l-0.1,0.2c0.1,3.9,1.1,7.1,3,9.6
			c1.9,2.5,4.6,3.8,8,3.8c2.5,0,4.7-0.4,6.6-1.1c1.9-0.7,3.5-1.7,4.9-3l2.9,4.8c-1.5,1.4-3.4,2.6-5.8,3.6
			C1622.6,168.6,1619.7,169.1,1616.3,169.1z M1615.2,132.7c-2.5,0-4.6,1-6.4,3.1c-1.8,2.1-2.8,4.7-3.2,7.9l0.1,0.2h18.8v-1
			c0-2.9-0.8-5.3-2.3-7.3C1620.6,133.7,1618.3,132.7,1615.2,132.7z"/>
		<path fill="#4B4B4D" d="M1332.7,205.8c5.8,0,10.4,1.5,13.6,4.5s4.9,7,4.9,11.9c0,5-1.6,8.9-4.9,11.9c-3.2,3-7.8,4.5-13.6,4.5H1321
			v16.2l6.1,1.1v4.7h-19.7v-4.7l6.1-1.1v-43.1l-6.1-1.1v-4.8h6.1H1332.7z M1321,232.8h11.6c3.7,0,6.5-1,8.3-3c1.8-2,2.8-4.5,2.8-7.5
			c0-3-0.9-5.6-2.8-7.6c-1.8-2-4.6-3-8.3-3H1321V232.8z"/>
		<path fill="#4B4B4D" d="M1386.2,254.6c-1.3,2.2-2.9,3.9-4.9,5c-2,1.2-4.3,1.8-7,1.8c-4.4,0-7.9-1.4-10.3-4.2
			c-2.5-2.8-3.7-7.2-3.7-13.2v-18.2l-4.7-1.1v-4.8h4.7h7.4V244c0,4.3,0.6,7.3,1.9,8.9c1.3,1.6,3.3,2.4,6,2.4c2.6,0,4.8-0.5,6.5-1.6
			c1.7-1.1,3-2.6,3.9-4.5v-23.5l-5.5-1.1v-4.8h5.5h7.4v34.9l4.7,1.1v4.7h-11.3L1386.2,254.6z"/>
		<path fill="#4B4B4D" d="M1441.1,241.8c0,5.9-1.4,10.6-4.2,14.2c-2.8,3.6-6.7,5.4-11.6,5.4c-2.7,0-5-0.5-6.9-1.5
			c-2-1-3.6-2.5-4.9-4.5l-0.7,5.2h-6.4v-52.8l-6.1-1.1v-4.8h13.5v22.8c1.3-1.8,2.9-3.2,4.8-4.1c1.9-1,4.1-1.4,6.6-1.4
			c5,0,8.9,2,11.7,6c2.8,4,4.2,9.3,4.2,15.8V241.8z M1433.6,241c0-4.7-0.9-8.5-2.6-11.4c-1.7-2.9-4.3-4.4-7.8-4.4
			c-2.3,0-4.2,0.6-5.8,1.7c-1.6,1.1-2.8,2.6-3.7,4.4v18c0.9,1.9,2.2,3.4,3.8,4.5c1.6,1.1,3.5,1.7,5.8,1.7c3.5,0,6.1-1.2,7.8-3.7
			c1.7-2.5,2.5-5.8,2.5-9.9V241z"/>
		<path fill="#4B4B4D" d="M1447.1,206.7v-4.8h13.5v52.9l6.1,1.1v4.7h-19.7v-4.7l6.1-1.1v-47L1447.1,206.7z"/>
		<path fill="#4B4B4D" d="M1472.3,255.8l6.1-1.1v-29.1l-6.1-1.1v-4.8h13.5v34.9l6.1,1.1v4.7h-19.7V255.8z M1485.9,209.5h-7.4v-7.6
			h7.4V209.5z"/>
		<path fill="#4B4B4D" d="M1515.9,255.6c2.5,0,4.6-0.8,6.5-2.3c1.9-1.5,2.8-3.4,2.8-5.6h6.7l0.1,0.2c0.1,3.5-1.4,6.6-4.7,9.3
			c-3.2,2.7-7,4.1-11.3,4.1c-5.9,0-10.4-1.9-13.6-5.8c-3.1-3.9-4.7-8.7-4.7-14.6v-1.6c0-5.8,1.6-10.6,4.7-14.5
			c3.1-3.9,7.6-5.8,13.5-5.8c3.3,0,6.2,0.5,8.8,1.6c2.6,1.1,4.7,2.6,6.4,4.4l0.3,9h-5.9l-1.6-6.4c-0.9-0.9-2-1.5-3.4-2.1
			c-1.4-0.5-2.9-0.8-4.7-0.8c-3.9,0-6.7,1.4-8.3,4.2c-1.7,2.8-2.5,6.2-2.5,10.3v1.6c0,4.2,0.8,7.6,2.5,10.4
			C1509.2,254.2,1512,255.6,1515.9,255.6z"/>
		<path fill="#4B4B4D" d="M1306.9,348.1l4.1-0.6l19.1-49.4h6.4l18.8,49.4l4,0.6v4.7h-15.7v-4.7l4.1-0.7l-3.6-10.1h-21.9l-3.7,10.1
			l4.1,0.7v4.7h-15.7V348.1z M1324.5,331.1h17.4l-8.5-23.5h-0.2L1324.5,331.1z"/>
		<path fill="#4B4B4D" d="M1363.9,317.7v-5.5h6.4V307c0-4.3,1.1-7.7,3.4-10.1c2.3-2.4,5.4-3.6,9.5-3.6c0.9,0,1.7,0.1,2.6,0.2
			c0.9,0.1,1.8,0.3,2.9,0.6l-0.9,5.6c-0.5-0.1-1-0.2-1.6-0.3c-0.6-0.1-1.3-0.1-2-0.1c-2.2,0-3.8,0.6-4.9,1.9s-1.6,3.2-1.6,5.6v5.2
			h8.5v5.5h-8.5v29.4l6.1,1.1v4.7h-19.7v-4.7l6.1-1.1v-29.4H1363.9z"/>
		<path fill="#4B4B4D" d="M1391.2,317.7v-5.5h6.4V307c0-4.3,1.1-7.7,3.4-10.1c2.3-2.4,5.4-3.6,9.5-3.6c0.9,0,1.7,0.1,2.6,0.2
			c0.9,0.1,1.8,0.3,2.9,0.6l-0.9,5.6c-0.5-0.1-1-0.2-1.6-0.3c-0.6-0.1-1.3-0.1-2-0.1c-2.2,0-3.8,0.6-4.9,1.9s-1.6,3.2-1.6,5.6v5.2
			h8.5v5.5h-8.5v29.4l6.1,1.1v4.7h-19.7v-4.7l6.1-1.1v-29.4H1391.2z"/>
		<path fill="#4B4B4D" d="M1445.9,352.9c-0.2-1.1-0.4-2.1-0.5-3c-0.1-0.9-0.2-1.8-0.3-2.6c-1.4,1.8-3.2,3.4-5.4,4.6
			c-2.1,1.2-4.4,1.8-6.9,1.8c-4.2,0-7.5-1-9.7-3.1c-2.2-2.1-3.3-5-3.3-8.7c0-3.9,1.6-6.8,4.7-8.9c3.1-2.1,7.4-3.1,12.8-3.1h7.6V325
			c0-2.4-0.8-4.3-2.3-5.7c-1.5-1.4-3.6-2.1-6.3-2.1c-1.9,0-3.5,0.2-4.9,0.7c-1.4,0.5-2.6,1.1-3.4,2l-0.8,4.3h-5.7v-7.9
			c1.9-1.5,4.1-2.7,6.7-3.6s5.5-1.3,8.6-1.3c4.6,0,8.3,1.2,11.2,3.5c2.9,2.4,4.3,5.7,4.3,10.1v19.6c0,0.5,0,1,0,1.5s0,1,0.1,1.5
			l3,0.4v4.7H1445.9z M1433.9,347.4c2.5,0,4.7-0.6,6.7-1.8c2-1.2,3.5-2.6,4.4-4.2v-6.7h-7.9c-3,0-5.4,0.7-7.2,2.1
			c-1.8,1.4-2.7,3.1-2.7,5.1c0,1.8,0.6,3.1,1.7,4.1C1430,347,1431.7,347.4,1433.9,347.4z"/>
		<path fill="#4B4B4D" d="M1461.7,348.1l6.1-1.1V318l-6.1-1.1v-4.8h13.5v34.9l6.1,1.1v4.7h-19.7V348.1z M1475.3,301.8h-7.4v-7.6h7.4
			V301.8z"/>
		<path fill="#4B4B4D" d="M1487,317v-4.8h12.7l0.7,5.9c1.2-2.1,2.6-3.7,4.3-4.9c1.7-1.2,3.6-1.8,5.8-1.8c0.6,0,1.2,0,1.8,0.1
			s1.1,0.2,1.4,0.3l-1,6.9l-4.2-0.2c-2,0-3.6,0.5-4.9,1.4c-1.3,0.9-2.4,2.2-3.1,3.9v23.3l6.1,1.1v4.7H1487v-4.7l6.1-1.1V318
			L1487,317z"/>
		<path fill="#4B4B4D" d="M1550,325h-5.6l-1.2-4.9c-0.9-0.9-2-1.5-3.4-2s-2.9-0.8-4.6-0.8c-2.6,0-4.6,0.6-5.9,1.7
			c-1.3,1.2-1.9,2.5-1.9,4.2c0,1.6,0.6,2.9,1.7,3.8c1.1,0.9,3.4,1.8,6.9,2.5c5.1,1.1,9,2.6,11.5,4.5c2.5,1.9,3.8,4.4,3.8,7.6
			c0,3.6-1.5,6.5-4.4,8.8c-2.9,2.2-6.7,3.3-11.4,3.3c-3.1,0-5.9-0.4-8.3-1.1c-2.5-0.7-4.7-1.7-6.6-3.1l0-9.3h5.6l1.4,5.5
			c0.9,0.8,2,1.3,3.5,1.7c1.5,0.4,3,0.5,4.5,0.5c2.6,0,4.7-0.5,6.2-1.6c1.5-1.1,2.2-2.5,2.2-4.2c0-1.6-0.6-3-1.9-4
			c-1.2-1.1-3.6-2-7-2.7c-4.9-1.1-8.7-2.5-11.2-4.4c-2.5-1.9-3.8-4.4-3.8-7.5c0-3.3,1.4-6.1,4.2-8.5c2.8-2.3,6.5-3.5,11-3.5
			c3.1,0,5.9,0.4,8.3,1.2c2.5,0.8,4.5,1.9,6.1,3.3L1550,325z"/>
		<path fill="#4B4B4D" d="M1306.9,440.4l4.1-0.6l19.1-49.4h6.4l18.8,49.4l4,0.6v4.7h-15.7v-4.7l4.1-0.7l-3.6-10.1h-21.9l-3.7,10.1
			l4.1,0.7v4.7h-15.7V440.4z M1324.5,423.4h17.4l-8.5-23.5h-0.2L1324.5,423.4z"/>
		<path fill="#4B4B4D" d="M1364.6,425.6c0-6.5,1.4-11.8,4.3-15.8c2.9-4,6.8-6,11.8-6c2.6,0,4.8,0.5,6.7,1.5c1.9,1,3.5,2.5,4.9,4.4
			l0.7-5.1h6.2v40.2c0,5.3-1.5,9.4-4.4,12.4s-7.1,4.5-12.5,4.5c-2,0-4.1-0.3-6.4-0.8c-2.3-0.5-4.3-1.3-6-2.2l1.9-5.8
			c1.4,0.7,3,1.3,4.9,1.8c1.9,0.5,3.7,0.7,5.5,0.7c3.3,0,5.7-0.9,7.3-2.8c1.5-1.9,2.3-4.5,2.3-7.9v-3.9c-1.3,1.7-2.9,3-4.8,3.9
			c-1.9,0.9-4,1.3-6.4,1.3c-5,0-8.9-1.8-11.8-5.4s-4.3-8.3-4.3-14.2V425.6z M1372,426.3c0,4.1,0.9,7.4,2.6,9.9s4.4,3.7,7.9,3.7
			c2.2,0,4.1-0.5,5.6-1.5c1.5-1,2.7-2.4,3.7-4.3v-18.7c-1-1.7-2.2-3.1-3.7-4.1c-1.5-1-3.4-1.5-5.5-1.5c-3.5,0-6.2,1.5-7.9,4.4
			c-1.8,3-2.6,6.8-2.6,11.4V426.3z"/>
		<path fill="#4B4B4D" d="M1426.7,445.9c-5.7,0-10.2-1.9-13.5-5.7c-3.3-3.8-5-8.7-5-14.7v-1.7c0-5.8,1.7-10.6,5.2-14.5
			c3.4-3.8,7.5-5.8,12.2-5.8c5.5,0,9.6,1.7,12.4,5c2.8,3.3,4.2,7.7,4.2,13.2v4.6h-26.4l-0.1,0.2c0.1,3.9,1.1,7.1,3,9.6
			c1.9,2.5,4.6,3.8,8,3.8c2.5,0,4.7-0.4,6.6-1.1c1.9-0.7,3.5-1.7,4.9-3l2.9,4.8c-1.5,1.4-3.4,2.6-5.8,3.6S1430.1,445.9,1426.7,445.9
			z M1425.6,409.5c-2.5,0-4.6,1-6.4,3.1c-1.8,2.1-2.8,4.7-3.2,7.9l0.1,0.2h18.8v-1c0-2.9-0.8-5.3-2.3-7.3
			C1431,410.5,1428.7,409.5,1425.6,409.5z"/>
		<path fill="#4B4B4D" d="M1448.5,440.4l6.1-1.1v-29.1l-6.1-1.1v-4.8h12.7l0.5,6.1c1.4-2.2,3.1-3.8,5.1-5s4.4-1.8,7-1.8
			c4.4,0,7.8,1.3,10.2,3.9c2.4,2.6,3.6,6.5,3.6,11.9v19.9l6.1,1.1v4.7h-19.7v-4.7l6.1-1.1v-19.7c0-3.6-0.7-6.1-2.1-7.6
			c-1.4-1.5-3.6-2.3-6.5-2.3c-2.1,0-4,0.5-5.7,1.5c-1.6,1-3,2.4-3.9,4.2v23.9l6.1,1.1v4.7h-19.7V440.4z"/>
		<path fill="#4B4B4D" d="M1512,394.7v9.8h7.7v5.5h-7.7v24.7c0,1.9,0.4,3.2,1.2,4c0.8,0.8,1.8,1.2,3.1,1.2c0.7,0,1.4-0.1,2.2-0.2
			c0.8-0.1,1.5-0.2,2-0.4l1,5.1c-0.7,0.5-1.7,0.8-3.1,1.1c-1.4,0.3-2.7,0.4-4.1,0.4c-3,0-5.4-0.9-7.2-2.7c-1.8-1.8-2.7-4.7-2.7-8.6
			V410h-6.4v-5.5h6.4v-9.8H1512z"/>
		<path fill="#4B4B4D" d="M1556.4,439.1c-1.3,2.2-2.9,3.9-4.9,5c-2,1.2-4.3,1.8-7,1.8c-4.4,0-7.9-1.4-10.3-4.2
			c-2.5-2.8-3.7-7.2-3.7-13.2v-18.2l-4.7-1.1v-4.8h4.7h7.4v24.1c0,4.3,0.6,7.3,1.9,8.9c1.3,1.6,3.3,2.4,6,2.4c2.6,0,4.8-0.5,6.5-1.6
			c1.7-1.1,3-2.6,3.9-4.5v-23.5l-5.5-1.1v-4.8h5.5h7.4v34.9l4.7,1.1v4.7h-11.3L1556.4,439.1z"/>
		<path fill="#4B4B4D" d="M1574.1,409.2v-4.8h12.7l0.7,5.9c1.2-2.1,2.6-3.7,4.3-4.9c1.7-1.2,3.6-1.8,5.8-1.8c0.6,0,1.2,0,1.8,0.1
			s1.1,0.2,1.4,0.3l-1,6.9l-4.2-0.2c-2,0-3.6,0.5-4.9,1.4c-1.3,0.9-2.4,2.2-3.1,3.9v23.3l6.1,1.1v4.7h-19.7v-4.7l6.1-1.1v-29.1
			L1574.1,409.2z"/>
	</g>
</g>
</svg>
